PathFileType	4	(X/Y/Z)	/Users/itak/Documents/Research/Walk-IL/dataset/trc/00185_00008.trc
DataRate	CameraRate	NumFrames	NumMarkers	Units	OrigDataRate	OrigDataStartFrame	OrigNumFrames
100.000000	100.000000	4	53	mm	100.000000	0	793
Frame#	Time	RPSI			LPSI			L3			STRN			T10			C7			CLAV			RBAK			LBAK			LSHO			LUPA			LAEL			LAOL			LWTS			LWPS			LFRA			LIFD			LHPS			LHTS			RSHO			RUPA			RAEL			RAOL			RWTS			RWPS			RFRA			RIFD			RHTS			RHPS			RBHD			LFHD			RFHD			LBHD			LHIP			RHIP			RASI			LASI			LKNE			LTHI			LANK			LTIP			LTOE			LMT1			LMT5			LHEE			RKNE			RTHI			RANK			RTIP			RTOE			RMT1			RMT5			RHEE			
		X1	Y1	Z1	X2	Y2	Z2	X3	Y3	Z3	X4	Y4	Z4	X5	Y5	Z5	X6	Y6	Z6	X7	Y7	Z7	X8	Y8	Z8	X9	Y9	Z9	X10	Y10	Z10	X11	Y11	Z11	X12	Y12	Z12	X13	Y13	Z13	X14	Y14	Z14	X15	Y15	Z15	X16	Y16	Z16	X17	Y17	Z17	X18	Y18	Z18	X19	Y19	Z19	X20	Y20	Z20	X21	Y21	Z21	X22	Y22	Z22	X23	Y23	Z23	X24	Y24	Z24	X25	Y25	Z25	X26	Y26	Z26	X27	Y27	Z27	X28	Y28	Z28	X29	Y29	Z29	X30	Y30	Z30	X31	Y31	Z31	X32	Y32	Z32	X33	Y33	Z33	X34	Y34	Z34	X35	Y35	Z35	X36	Y36	Z36	X37	Y37	Z37	X38	Y38	Z38	X39	Y39	Z39	X40	Y40	Z40	X41	Y41	Z41	X42	Y42	Z42	X43	Y43	Z43	X44	Y44	Z44	X45	Y45	Z45	X46	Y46	Z46	X47	Y47	Z47	X48	Y48	Z48	X49	Y49	Z49	X50	Y50	Z50	X51	Y51	Z51	X52	Y52	Z52	X53	Y53	Z53	

1	0	-33.84683227539062	1057.72900390625	1390.613037109375	-29.70915031433105	1054.31591796875	1266.031372070312	-31.46846389770508	1092.055053710938	1329.735595703125	222.8615112304688	1307.484985351562	1322.333374023438	-73.12879943847656	1246.9765625	1320.007446289062	-13.64543151855469	1517.892944335938	1303.352661132812	191.86181640625	1419.983154296875	1310.653442382812	-76.39937591552734	1345.07763671875	1416.688110351562	-18.35285949707031	1491.249145507812	1203.348754882812	60.54888534545898	1478.775390625	1125.593627929688	32.36649322509766	1343.845336914062	1053.83544921875	54.02317810058594	1126.304321289062	1042.831298828125	10.52716159820557	1110.629272460938	1117.934326171875	169.0323028564453	896.4747314453125	1072.281005859375	85.90665435791016	874.4869384765625	1034.440307617188	69.01972961425781	1016.253845214844	1030.123901367188	182.8382873535156	711.8465576171875	1098.078002929688	107.066764831543	805.2176513671875	1038.631958007812	178.6230316162109	816.2601928710938	1052.4736328125	49.98236465454102	1503.627563476562	1484.6904296875	34.21381759643555	1438.43017578125	1556.437255859375	38.8237419128418	1149.746215820312	1613.781616210938	33.17596054077148	1141.017211914062	1518.798950195312	193.9600067138672	931.9540405273438	1599.795532226562	122.7317352294922	912.1812133789062	1649.023803710938	69.08482360839844	1080.020874023438	1633.836059570312	214.8177795410156	747.6192626953125	1571.482299804688	227.427001953125	839.991455078125	1609.484375	156.4834899902344	829.99365234375	1646.201171875	28.99170303344727	1675.128173828125	1360.91796875	190.144287109375	1742.40185546875	1228.77685546875	184.580322265625	1756.171142578125	1358.015502929688	26.25518798828125	1665.09228515625	1220.742797851562	77.22018432617188	992.3272705078125	1151.321533203125	121.3224639892578	1024.243286132812	1520.138793945312	201.0735931396484	1049.689453125	1462.95166015625	201.6815490722656	1032.52490234375	1206.652954101562	65.29814147949219	500.7328186035156	1183.132934570312	79.91327667236328	642.1455078125	1157.852416992188	-34.92028427124023	48.16579055786133	1174.773315429688	16.43298721313477	282.5477600097656	1165.295776367188	186.0552215576172	42.76848220825195	1162.872314453125	143.8157806396484	42.7080192565918	1220.516235351562	65.00897979736328	41.01003265380859	1118.584350585938	-76.33452606201172	44.45194625854492	1249.48779296875	96.09079742431641	521.9974365234375	1508.588623046875	160.620361328125	790.0818481445312	1533.7919921875	-13.78028106689453	45.44583892822266	1518.2255859375	98.27395629882812	404.1021728515625	1492.6513671875	207.9946899414062	47.0745964050293	1481.822387695312	153.3417663574219	45.03135681152344	1436.332641601562	99.36238098144531	41.63150787353516	1553.823364257812	-65.09763336181641	44.51625442504883	1449.468505859375	
2	0.01	-34.0301399230957	1057.772705078125	1390.553833007812	-29.84458923339844	1054.333251953125	1265.971313476562	-31.65058708190918	1092.130615234375	1329.676879882812	222.8456420898438	1307.413330078125	1322.565185546875	-73.19937133789062	1247.149536132812	1319.857666015625	-13.37417888641357	1518.018310546875	1303.394653320312	192.0335388183594	1419.9482421875	1310.890502929688	-76.40085601806641	1345.212890625	1416.59619140625	-17.95132446289062	1491.47802734375	1203.346435546875	61.04080581665039	1478.94482421875	1125.6640625	32.88983535766602	1344.04443359375	1053.806884765625	54.50875091552734	1126.485595703125	1042.760864257812	10.79138565063477	1110.794067382812	1117.756225585938	169.6549072265625	896.7826538085938	1072.570190429688	86.67350769042969	874.6924438476562	1034.500610351562	69.63381958007812	1016.431579589844	1030.103637695312	183.6712341308594	712.1878662109375	1098.401489257812	107.9441909790039	805.448486328125	1038.752197265625	179.4398803710938	816.5712280273438	1052.785400390625	49.99953460693359	1503.6533203125	1484.760864257812	34.11592102050781	1438.466064453125	1556.473388671875	38.48816299438477	1149.756469726562	1613.805053710938	32.86687850952148	1141.025512695312	1518.81103515625	193.4574584960938	931.8458862304688	1599.555297851562	122.2945938110352	912.0971069335938	1648.877685546875	68.74761199951172	1080.009887695312	1633.818481445312	214.1154327392578	747.5107421875	1571.196044921875	226.8448486328125	839.8786010742188	1609.185913085938	155.9875335693359	829.9293212890625	1645.946899414062	29.28565788269043	1675.060546875	1360.839599609375	190.4608764648438	1742.31591796875	1228.73779296875	184.7812042236328	1756.267822265625	1357.961181640625	26.65836143493652	1664.8662109375	1220.7177734375	77.16782379150391	992.3145751953125	1151.302856445312	120.9930267333984	1024.239990234375	1520.096801757812	200.8558349609375	1049.683227539062	1463.005126953125	201.5744323730469	1032.511596679688	1206.698608398438	65.21871948242188	500.7310485839844	1183.15478515625	79.85055541992188	642.1444091796875	1157.880249023438	-34.92708969116211	48.16507720947266	1174.767456054688	16.3771800994873	282.5431213378906	1165.306030273438	186.0510559082031	42.77359390258789	1162.87353515625	143.8122406005859	42.70330429077148	1220.514282226562	65.00428771972656	41.00244140625	1118.580810546875	-76.35185241699219	44.43789672851562	1249.478637695312	96.20477294921875	522.009033203125	1508.520751953125	160.5393371582031	790.1082763671875	1533.73291015625	-13.78969860076904	45.45634841918945	1518.211059570312	98.35723114013672	404.0717468261719	1492.590576171875	207.9905242919922	47.07445907592773	1481.826782226562	153.3430786132812	45.0314826965332	1436.328979492188	99.35776519775391	41.64320755004883	1553.817749023438	-65.12047576904297	44.51590347290039	1449.423583984375	
3	0.02	-34.25986862182617	1057.838623046875	1390.4931640625	-30.01763343811035	1054.36376953125	1265.910278320312	-31.88307571411133	1092.232055664062	1329.609252929688	222.8397521972656	1307.333374023438	1322.844604492188	-73.27970123291016	1247.363647460938	1319.686279296875	-13.0463342666626	1518.175048828125	1303.44384765625	192.2463989257812	1419.910522460938	1311.1826171875	-76.39964294433594	1345.3857421875	1416.487915039062	-17.46153259277344	1491.751831054688	1203.338623046875	61.64449691772461	1479.154541015625	1125.760498046875	33.54771423339844	1344.298095703125	1053.774780273438	55.13098526000977	1126.713012695312	1042.66552734375	11.1253719329834	1111.003662109375	1117.516357421875	170.4651489257812	897.177978515625	1072.927124023438	87.66597747802734	874.9512329101562	1034.565551757812	70.41722106933594	1016.658203125	1030.066284179688	184.7406616210938	712.6183471679688	1098.806640625	109.0678558349609	805.7366943359375	1038.895629882812	180.4900054931641	816.9761352539062	1053.170776367188	50.03567123413086	1503.687866210938	1484.854125976562	34.0084114074707	1438.509765625	1556.522338867188	38.07460021972656	1149.766235351562	1613.836181640625	32.4912109375	1141.023559570312	1518.817260742188	192.8124847412109	931.7047729492188	1599.24951171875	121.7265548706055	911.9850463867188	1648.683471679688	68.31723022460938	1079.980834960938	1633.783569335938	213.2548675537109	747.3672485351562	1570.831176757812	226.1276397705078	839.7412109375	1608.805908203125	155.3443450927734	829.8366088867188	1645.625122070312	29.64363861083984	1675.008178710938	1360.733764648438	190.8904876708984	1742.197631835938	1228.715454101562	185.0602264404297	1756.360595703125	1357.914916992188	27.17018699645996	1664.626342773438	1220.678833007812	77.07642364501953	992.3028564453125	1151.286987304688	120.580940246582	1024.231323242188	1520.045532226562	200.5867767333984	1049.673095703125	1463.070190429688	201.4336700439453	1032.495727539062	1206.750366210938	65.10718536376953	500.7300720214844	1183.181030273438	79.75608825683594	642.1450805664062	1157.912109375	-34.93636322021484	48.16245269775391	1174.759887695312	16.30070304870605	282.5376586914062	1165.318725585938	186.0456237792969	42.78049087524414	1162.874267578125	143.8081665039062	42.69846725463867	1220.51171875	64.999267578125	40.99503326416016	1118.576049804688	-76.36810302734375	44.42061996459961	1249.4716796875	96.3560791015625	522.0216064453125	1508.43359375	160.4371948242188	790.1459350585938	1533.661499023438	-13.7991828918457	45.47022247314453	1518.193725585938	98.46880340576172	404.0319213867188	1492.514282226562	207.9856719970703	47.07651138305664	1481.833862304688	153.3476257324219	45.03450393676758	1436.32373046875	99.35299682617188	41.65756607055664	1553.809204101562	-65.14510345458984	44.51473236083984	1449.373657226562	
4	0.03	-34.52669143676758	1057.92822265625	1390.440185546875	-30.2204761505127	1054.4111328125	1265.8564453125	-32.15554046630859	1092.357421875	1329.538696289062	222.8505859375	1307.252685546875	1323.154174804688	-73.36006164550781	1247.60986328125	1319.507690429688	-12.68343734741211	1518.3564453125	1303.4970703125	192.4885711669922	1419.874389648438	1311.513061523438	-76.39394378662109	1345.58935546875	1416.371704101562	-16.91525650024414	1492.052001953125	1203.326782226562	62.32150650024414	1479.394165039062	1125.881958007812	34.30997848510742	1344.595703125	1053.742065429688	55.86598587036133	1126.9765625	1042.546264648438	11.51552295684814	1111.24609375	1117.216430664062	171.4416351318359	897.6473388671875	1073.334106445312	88.85646057128906	875.2515869140625	1034.626953125	71.34424591064453	1016.924926757812	1030.008544921875	186.0150909423828	713.1226806640625	1099.27490234375	110.4035797119141	806.069580078125	1039.05224609375	181.7437591552734	817.4624633789062	1053.611206054688	50.09619522094727	1503.731323242188	1484.968139648438	33.90300750732422	1438.560302734375	1556.583862304688	37.60115432739258	1149.772827148438	1613.871948242188	32.06906509399414	1141.005737304688	1518.807373046875	192.0472412109375	931.5339965820312	1598.888671875	121.0429306030273	911.8484497070312	1648.44384765625	67.80804443359375	1079.929931640625	1633.726440429688	212.2743835449219	747.1904907226562	1570.39794921875	225.3054809570312	839.58203125	1608.357421875	154.5715484619141	829.71240234375	1645.246704101562	30.04655075073242	1674.988525390625	1360.603515625	191.4322509765625	1742.04736328125	1228.724487304688	185.4191741943359	1756.43115234375	1357.891845703125	27.77303695678711	1664.40576171875	1220.625366210938	76.93723297119141	992.2953491210938	1151.278198242188	120.1047973632812	1024.213134765625	1519.984619140625	200.2808227539062	1049.658935546875	1463.143188476562	201.2593994140625	1032.477416992188	1206.8037109375	64.96276092529297	500.7305297851562	1183.210205078125	79.62562561035156	642.148193359375	1157.945556640625	-34.94779586791992	48.15711975097656	1174.75146484375	16.20401000976562	282.5320129394531	1165.333740234375	186.0382690429688	42.7886962890625	1162.874145507812	143.8035736083984	42.6947135925293	1220.508544921875	64.99416351318359	40.98854827880859	1118.570434570312	-76.38021850585938	44.40016937255859	1249.469604492188	96.54133605957031	522.0343627929688	1508.330200195312	160.3193206787109	790.194091796875	1533.582153320312	-13.8070764541626	45.48706436157227	1518.174072265625	98.60607147216797	403.9837646484375	1492.425537109375	207.9800415039062	47.08170318603516	1481.844604492188	153.3571624755859	45.04277420043945	1436.316650390625	99.34880828857422	41.67422485351562	1553.798095703125	-65.16664886474609	44.51243209838867	1449.326782226562	
